<svg width="90" height="19" viewBox="0 0 90 19" fill="none" xmlns="http://www.w3.org/2000/svg">
<g filter="url(#filter0_i_1247_163)">
<path d="M10 13.5C10 15.1333 9.61667 16.3333 8.85 17.1C8.08333 17.8667 6.9 18.25 5.3 18.25C3.71667 18.25 2.03333 18.1667 0.25 18V14.625C1.55 14.7083 2.88333 14.75 4.25 14.75C4.63333 14.75 4.93333 14.6417 5.15 14.425C5.38333 14.1917 5.5 13.8833 5.5 13.5V4H2.25V0.5H10V13.5Z" fill="#632F12"/>
<path d="M12.249 14.25H16.749V18H12.249V14.25Z" fill="#632F12"/>
<path d="M34.0049 17.625C30.1049 18.0417 26.5215 18.25 23.2549 18.25C21.6215 18.25 20.4215 17.8667 19.6549 17.1C18.8882 16.3333 18.5049 15.1333 18.5049 13.5V5.5C18.5049 3.75 18.8965 2.48333 19.6799 1.7C20.4799 0.9 21.7549 0.5 23.5049 0.5H32.5049V4H24.5049C23.5049 4 23.0049 4.5 23.0049 5.5V13.5C23.0049 13.8833 23.1132 14.1917 23.3299 14.425C23.5632 14.6417 23.8715 14.75 24.2549 14.75C26.1715 14.75 27.9215 14.7083 29.5049 14.625V11H26.2549V8H34.0049V17.625Z" fill="#632F12"/>
<path d="M56.5049 6C56.5049 7.41667 55.9049 8.64167 54.7049 9.675C54.3382 9.99167 53.9382 10.3083 53.5049 10.625L48.1299 14.5H56.5049V18H43.0049V13.25L52.0049 6.75V5.5C52.0049 4.5 51.5049 4 50.5049 4H43.5049V0.5H51.5049C53.2549 0.5 54.5215 0.9 55.3049 1.7C56.1049 2.48333 56.5049 3.75 56.5049 5.5V6Z" fill="#632F12"/>
<path d="M68.501 5.25C68.501 4.25 68.001 3.75 67.001 3.75H64.251C63.251 3.75 62.751 4.25 62.751 5.25V13.25C62.751 14.25 63.251 14.75 64.251 14.75H67.001C68.001 14.75 68.501 14.25 68.501 13.25V5.25ZM73.001 13.25C73.001 15 72.601 16.275 71.801 17.075C71.0176 17.8583 69.751 18.25 68.001 18.25H63.251C61.501 18.25 60.226 17.8583 59.426 17.075C58.6426 16.275 58.251 15 58.251 13.25V5.25C58.251 3.5 58.6426 2.23333 59.426 1.45C60.226 0.65 61.501 0.25 63.251 0.25H68.001C69.751 0.25 71.0176 0.65 71.801 1.45C72.601 2.23333 73.001 3.5 73.001 5.25V13.25Z" fill="#632F12"/>
<path d="M85.249 5.25C85.249 4.25 84.749 3.75 83.749 3.75H80.999C79.999 3.75 79.499 4.25 79.499 5.25V13.25C79.499 14.25 79.999 14.75 80.999 14.75H83.749C84.749 14.75 85.249 14.25 85.249 13.25V5.25ZM89.749 13.25C89.749 15 89.349 16.275 88.549 17.075C87.7657 17.8583 86.499 18.25 84.749 18.25H79.999C78.249 18.25 76.974 17.8583 76.174 17.075C75.3907 16.275 74.999 15 74.999 13.25V5.25C74.999 3.5 75.3907 2.23333 76.174 1.45C76.974 0.65 78.249 0.25 79.999 0.25H84.749C86.499 0.25 87.7657 0.65 88.549 1.45C89.349 2.23333 89.749 3.5 89.749 5.25V13.25Z" fill="#632F12"/>
</g>
<defs>
<filter id="filter0_i_1247_163" x="0.25" y="0.25" width="89.499" height="18.9" filterUnits="userSpaceOnUse" color-interpolation-filters="sRGB">
<feFlood flood-opacity="0" result="BackgroundImageFix"/>
<feBlend mode="normal" in="SourceGraphic" in2="BackgroundImageFix" result="shape"/>
<feColorMatrix in="SourceAlpha" type="matrix" values="0 0 0 0 0 0 0 0 0 0 0 0 0 0 0 0 0 0 127 0" result="hardAlpha"/>
<feOffset dy="3"/>
<feGaussianBlur stdDeviation="0.45"/>
<feComposite in2="hardAlpha" operator="arithmetic" k2="-1" k3="1"/>
<feColorMatrix type="matrix" values="0 0 0 0 0 0 0 0 0 0 0 0 0 0 0 0 0 0 0.25 0"/>
<feBlend mode="normal" in2="shape" result="effect1_innerShadow_1247_163"/>
</filter>
</defs>
</svg>
