<svg width="409" height="174" viewBox="0 0 409 174" fill="none" xmlns="http://www.w3.org/2000/svg">
<path d="M45 174H0V123H45V174ZM97 174H52V123H97V174ZM149 174H104V123H149V174ZM201 174H156V123H201V174ZM253 174H208V123H253V174ZM305 174H260V123H305V174ZM357 174H312V123H357V174ZM409 174H364V123H409V174ZM0.5 173.5H44.5V163H0.5V173.5ZM52.5 173.5H96.5V163H52.5V173.5ZM104.5 173.5H148.5V163H104.5V173.5ZM156.5 173.5H200.5V163H156.5V173.5ZM208.5 173.5H252.5V163H208.5V173.5ZM260.5 173.5H304.5V163H260.5V173.5ZM312.5 173.5H356.5V163H312.5V173.5ZM364.5 173.5H408.5V163H364.5V173.5ZM6.66797 167.148C6.73724 167.148 6.79453 167.169 6.83984 167.212C6.88518 167.252 6.9082 167.316 6.9082 167.404V169.04H7.10352C7.18085 169.04 7.23903 169.058 7.27637 169.096C7.31632 169.13 7.33593 169.183 7.33594 169.252C7.33594 169.321 7.31627 169.375 7.27637 169.412C7.23903 169.447 7.18085 169.464 7.10352 169.464H6.9082V169.776C6.90814 169.859 6.88509 169.923 6.83984 169.968C6.79458 170.01 6.73218 170.032 6.65234 170.032C6.57234 170.032 6.5092 170.01 6.46387 169.968C6.41872 169.923 6.39655 169.859 6.39648 169.776V169.464H5.4082C5.32557 169.464 5.25867 169.447 5.20801 169.412C5.16002 169.377 5.13575 169.323 5.13574 169.248C5.13574 169.205 5.14673 169.159 5.16797 169.108C5.19196 169.058 5.23338 168.991 5.29199 168.908L6.3877 167.32C6.42493 167.264 6.46653 167.222 6.51172 167.192C6.55704 167.163 6.60931 167.148 6.66797 167.148ZM58.668 167.148C58.7372 167.148 58.7945 167.169 58.8398 167.212C58.8852 167.252 58.9082 167.316 58.9082 167.404V169.04H59.1035C59.1808 169.04 59.239 169.058 59.2764 169.096C59.3163 169.13 59.3359 169.183 59.3359 169.252C59.3359 169.321 59.3163 169.375 59.2764 169.412C59.239 169.447 59.1808 169.464 59.1035 169.464H58.9082V169.776C58.9081 169.859 58.8851 169.923 58.8398 169.968C58.7946 170.01 58.7322 170.032 58.6523 170.032C58.5723 170.032 58.5092 170.01 58.4639 169.968C58.4187 169.923 58.3966 169.859 58.3965 169.776V169.464H57.4082C57.3256 169.464 57.2587 169.447 57.208 169.412C57.16 169.377 57.1358 169.323 57.1357 169.248C57.1357 169.205 57.1467 169.159 57.168 169.108C57.192 169.058 57.2334 168.991 57.292 168.908L58.3877 167.32C58.4249 167.264 58.4665 167.222 58.5117 167.192C58.557 167.163 58.6093 167.148 58.668 167.148ZM110.668 167.148C110.737 167.148 110.795 167.169 110.84 167.212C110.885 167.252 110.908 167.316 110.908 167.404V169.04H111.104C111.181 169.04 111.239 169.058 111.276 169.096C111.316 169.13 111.336 169.183 111.336 169.252C111.336 169.321 111.316 169.375 111.276 169.412C111.239 169.447 111.181 169.464 111.104 169.464H110.908V169.776C110.908 169.859 110.885 169.923 110.84 169.968C110.795 170.01 110.732 170.032 110.652 170.032C110.572 170.032 110.509 170.01 110.464 169.968C110.419 169.923 110.397 169.859 110.396 169.776V169.464H109.408C109.326 169.464 109.259 169.447 109.208 169.412C109.16 169.377 109.136 169.323 109.136 169.248C109.136 169.205 109.147 169.159 109.168 169.108C109.192 169.058 109.233 168.991 109.292 168.908L110.388 167.32C110.425 167.264 110.467 167.222 110.512 167.192C110.557 167.163 110.609 167.148 110.668 167.148ZM162.668 167.148C162.737 167.148 162.795 167.169 162.84 167.212C162.885 167.252 162.908 167.316 162.908 167.404V169.04H163.104C163.181 169.04 163.239 169.058 163.276 169.096C163.316 169.13 163.336 169.183 163.336 169.252C163.336 169.321 163.316 169.375 163.276 169.412C163.239 169.447 163.181 169.464 163.104 169.464H162.908V169.776C162.908 169.859 162.885 169.923 162.84 169.968C162.795 170.01 162.732 170.032 162.652 170.032C162.572 170.032 162.509 170.01 162.464 169.968C162.419 169.923 162.397 169.859 162.396 169.776V169.464H161.408C161.326 169.464 161.259 169.447 161.208 169.412C161.16 169.377 161.136 169.323 161.136 169.248C161.136 169.205 161.147 169.159 161.168 169.108C161.192 169.058 161.233 168.991 161.292 168.908L162.388 167.32C162.425 167.264 162.467 167.222 162.512 167.192C162.557 167.163 162.609 167.148 162.668 167.148ZM214.668 167.148C214.737 167.148 214.795 167.169 214.84 167.212C214.885 167.252 214.908 167.316 214.908 167.404V169.04H215.104C215.181 169.04 215.239 169.058 215.276 169.096C215.316 169.13 215.336 169.183 215.336 169.252C215.336 169.321 215.316 169.375 215.276 169.412C215.239 169.447 215.181 169.464 215.104 169.464H214.908V169.776C214.908 169.859 214.885 169.923 214.84 169.968C214.795 170.01 214.732 170.032 214.652 170.032C214.572 170.032 214.509 170.01 214.464 169.968C214.419 169.923 214.397 169.859 214.396 169.776V169.464H213.408C213.326 169.464 213.259 169.447 213.208 169.412C213.16 169.377 213.136 169.323 213.136 169.248C213.136 169.205 213.147 169.159 213.168 169.108C213.192 169.058 213.233 168.991 213.292 168.908L214.388 167.32C214.425 167.264 214.467 167.222 214.512 167.192C214.557 167.163 214.609 167.148 214.668 167.148ZM266.668 167.148C266.737 167.148 266.795 167.169 266.84 167.212C266.885 167.252 266.908 167.316 266.908 167.404V169.04H267.104C267.181 169.04 267.239 169.058 267.276 169.096C267.316 169.13 267.336 169.183 267.336 169.252C267.336 169.321 267.316 169.375 267.276 169.412C267.239 169.447 267.181 169.464 267.104 169.464H266.908V169.776C266.908 169.859 266.885 169.923 266.84 169.968C266.795 170.01 266.732 170.032 266.652 170.032C266.572 170.032 266.509 170.01 266.464 169.968C266.419 169.923 266.397 169.859 266.396 169.776V169.464H265.408C265.326 169.464 265.259 169.447 265.208 169.412C265.16 169.377 265.136 169.323 265.136 169.248C265.136 169.205 265.147 169.159 265.168 169.108C265.192 169.058 265.233 168.991 265.292 168.908L266.388 167.32C266.425 167.264 266.467 167.222 266.512 167.192C266.557 167.163 266.609 167.148 266.668 167.148ZM318.668 167.148C318.737 167.148 318.795 167.169 318.84 167.212C318.885 167.252 318.908 167.316 318.908 167.404V169.04H319.104C319.181 169.04 319.239 169.058 319.276 169.096C319.316 169.13 319.336 169.183 319.336 169.252C319.336 169.321 319.316 169.375 319.276 169.412C319.239 169.447 319.181 169.464 319.104 169.464H318.908V169.776C318.908 169.859 318.885 169.923 318.84 169.968C318.795 170.01 318.732 170.032 318.652 170.032C318.572 170.032 318.509 170.01 318.464 169.968C318.419 169.923 318.397 169.859 318.396 169.776V169.464H317.408C317.326 169.464 317.259 169.447 317.208 169.412C317.16 169.377 317.136 169.323 317.136 169.248C317.136 169.205 317.147 169.159 317.168 169.108C317.192 169.058 317.233 168.991 317.292 168.908L318.388 167.32C318.425 167.264 318.467 167.222 318.512 167.192C318.557 167.163 318.609 167.148 318.668 167.148ZM370.668 167.148C370.737 167.148 370.795 167.169 370.84 167.212C370.885 167.252 370.908 167.316 370.908 167.404V169.04H371.104C371.181 169.04 371.239 169.058 371.276 169.096C371.316 169.13 371.336 169.183 371.336 169.252C371.336 169.321 371.316 169.375 371.276 169.412C371.239 169.447 371.181 169.464 371.104 169.464H370.908V169.776C370.908 169.859 370.885 169.923 370.84 169.968C370.795 170.01 370.732 170.032 370.652 170.032C370.572 170.032 370.509 170.01 370.464 169.968C370.419 169.923 370.397 169.859 370.396 169.776V169.464H369.408C369.326 169.464 369.259 169.447 369.208 169.412C369.16 169.377 369.136 169.323 369.136 169.248C369.136 169.205 369.147 169.159 369.168 169.108C369.192 169.058 369.233 168.991 369.292 168.908L370.388 167.32C370.425 167.264 370.467 167.222 370.512 167.192C370.557 167.163 370.609 167.148 370.668 167.148ZM7.89844 169.428C7.99164 169.428 8.0636 169.456 8.11426 169.512C8.16753 169.565 8.19428 169.635 8.19434 169.72C8.19434 169.808 8.1675 169.88 8.11426 169.936C8.06359 169.992 7.99177 170.02 7.89844 170.02C7.80777 170.02 7.73471 169.992 7.67871 169.936C7.62544 169.88 7.59863 169.808 7.59863 169.72C7.59869 169.635 7.62543 169.565 7.67871 169.512C7.73468 169.456 7.80792 169.428 7.89844 169.428ZM59.8984 169.428C59.9916 169.428 60.0636 169.456 60.1143 169.512C60.1675 169.565 60.1943 169.635 60.1943 169.72C60.1943 169.808 60.1675 169.88 60.1143 169.936C60.0636 169.992 59.9918 170.02 59.8984 170.02C59.8078 170.02 59.7347 169.992 59.6787 169.936C59.6254 169.88 59.5986 169.808 59.5986 169.72C59.5987 169.635 59.6254 169.565 59.6787 169.512C59.7347 169.456 59.8079 169.428 59.8984 169.428ZM111.898 169.428C111.992 169.428 112.064 169.456 112.114 169.512C112.168 169.565 112.194 169.635 112.194 169.72C112.194 169.808 112.167 169.88 112.114 169.936C112.064 169.992 111.992 170.02 111.898 170.02C111.808 170.02 111.735 169.992 111.679 169.936C111.625 169.88 111.599 169.808 111.599 169.72C111.599 169.635 111.625 169.565 111.679 169.512C111.735 169.456 111.808 169.428 111.898 169.428ZM163.898 169.428C163.992 169.428 164.064 169.456 164.114 169.512C164.168 169.565 164.194 169.635 164.194 169.72C164.194 169.808 164.167 169.88 164.114 169.936C164.064 169.992 163.992 170.02 163.898 170.02C163.808 170.02 163.735 169.992 163.679 169.936C163.625 169.88 163.599 169.808 163.599 169.72C163.599 169.635 163.625 169.565 163.679 169.512C163.735 169.456 163.808 169.428 163.898 169.428ZM215.898 169.428C215.992 169.428 216.064 169.456 216.114 169.512C216.168 169.565 216.194 169.635 216.194 169.72C216.194 169.808 216.167 169.88 216.114 169.936C216.064 169.992 215.992 170.02 215.898 170.02C215.808 170.02 215.735 169.992 215.679 169.936C215.625 169.88 215.599 169.808 215.599 169.72C215.599 169.635 215.625 169.565 215.679 169.512C215.735 169.456 215.808 169.428 215.898 169.428ZM267.898 169.428C267.992 169.428 268.064 169.456 268.114 169.512C268.168 169.565 268.194 169.635 268.194 169.72C268.194 169.808 268.168 169.88 268.114 169.936C268.064 169.992 267.992 170.02 267.898 170.02C267.808 170.02 267.735 169.992 267.679 169.936C267.625 169.88 267.599 169.808 267.599 169.72C267.599 169.635 267.625 169.565 267.679 169.512C267.735 169.456 267.808 169.428 267.898 169.428ZM319.898 169.428C319.992 169.428 320.064 169.456 320.114 169.512C320.168 169.565 320.194 169.635 320.194 169.72C320.194 169.808 320.168 169.88 320.114 169.936C320.064 169.992 319.992 170.02 319.898 170.02C319.808 170.02 319.735 169.992 319.679 169.936C319.625 169.88 319.599 169.808 319.599 169.72C319.599 169.635 319.625 169.565 319.679 169.512C319.735 169.456 319.808 169.428 319.898 169.428ZM371.898 169.428C371.992 169.428 372.064 169.456 372.114 169.512C372.168 169.565 372.194 169.635 372.194 169.72C372.194 169.808 372.168 169.88 372.114 169.936C372.064 169.992 371.992 170.02 371.898 170.02C371.808 170.02 371.735 169.992 371.679 169.936C371.625 169.88 371.599 169.808 371.599 169.72C371.599 169.635 371.625 169.565 371.679 169.512C371.735 169.456 371.808 169.428 371.898 169.428ZM5.66113 169.04H6.39648V167.961L5.66113 169.04ZM57.6611 169.04H58.3965V167.961L57.6611 169.04ZM109.661 169.04H110.396V167.961L109.661 169.04ZM161.661 169.04H162.396V167.961L161.661 169.04ZM213.661 169.04H214.396V167.961L213.661 169.04ZM265.661 169.04H266.396V167.961L265.661 169.04ZM317.661 169.04H318.396V167.961L317.661 169.04ZM369.661 169.04H370.396V167.961L369.661 169.04ZM0.5 162.5H44.5V152H0.5V162.5ZM52.5 162.5H96.5V152H52.5V162.5ZM104.5 162.5H148.5V152H104.5V162.5ZM156.5 162.5H200.5V152H156.5V162.5ZM208.5 162.5H252.5V152H208.5V162.5ZM260.5 162.5H304.5V152H260.5V162.5ZM312.5 162.5H356.5V152H312.5V162.5ZM364.5 162.5H408.5V152H364.5V162.5ZM6.15234 156.14C6.34686 156.14 6.51376 156.171 6.65234 156.232C6.79079 156.291 6.89585 156.376 6.96777 156.488C7.04235 156.598 7.08003 156.731 7.08008 156.888C7.08008 157 7.05829 157.103 7.01562 157.196C6.97299 157.287 6.91312 157.364 6.83594 157.428C6.78001 157.474 6.71524 157.509 6.64258 157.536C6.79321 157.576 6.91394 157.648 7.00391 157.756C7.11049 157.881 7.16398 158.038 7.16406 158.228C7.16406 158.393 7.12271 158.537 7.04004 158.66C6.95743 158.783 6.84031 158.878 6.68848 158.944C6.53648 159.008 6.35422 159.04 6.14355 159.04C5.9998 159.04 5.85067 159.022 5.69629 158.984C5.5417 158.947 5.40662 158.891 5.29199 158.816C5.2387 158.782 5.20227 158.742 5.18359 158.696C5.16498 158.651 5.16007 158.608 5.16797 158.568C5.17861 158.526 5.19832 158.489 5.22754 158.46C5.25948 158.431 5.29853 158.414 5.34375 158.408C5.39175 158.403 5.444 158.415 5.5 158.444C5.60928 158.503 5.71512 158.546 5.81641 158.572C5.91758 158.596 6.02144 158.608 6.12793 158.608C6.24526 158.608 6.34383 158.592 6.42383 158.56C6.50373 158.528 6.56352 158.48 6.60352 158.416C6.64618 158.352 6.66797 158.274 6.66797 158.184C6.66788 158.05 6.6228 157.952 6.53223 157.888C6.44423 157.821 6.31422 157.788 6.14355 157.788H5.8877C5.81325 157.788 5.75576 157.77 5.71582 157.732C5.67852 157.695 5.66019 157.643 5.66016 157.576C5.66016 157.51 5.67852 157.457 5.71582 157.42C5.75577 157.383 5.81318 157.364 5.8877 157.364H6.0957C6.19704 157.364 6.28445 157.348 6.35645 157.316C6.42835 157.282 6.48445 157.233 6.52441 157.172C6.56426 157.111 6.58395 157.036 6.58398 156.948C6.58398 156.826 6.54263 156.732 6.45996 156.668C6.38003 156.604 6.26284 156.572 6.1084 156.572C6.00974 156.572 5.91612 156.584 5.82812 156.608C5.74279 156.63 5.64795 156.671 5.54395 156.732C5.49611 156.762 5.44948 156.773 5.4043 156.768C5.36163 156.762 5.32523 156.745 5.2959 156.716C5.26673 156.687 5.247 156.652 5.23633 156.612C5.22569 156.57 5.22823 156.527 5.24414 156.484C5.26011 156.439 5.29323 156.4 5.34375 156.368C5.45831 156.294 5.58512 156.238 5.72363 156.2C5.8623 156.16 6.00568 156.14 6.15234 156.14ZM58.1523 156.14C58.3469 156.14 58.5138 156.171 58.6523 156.232C58.7908 156.291 58.8959 156.376 58.9678 156.488C59.0424 156.598 59.08 156.731 59.0801 156.888C59.0801 157 59.0583 157.103 59.0156 157.196C58.973 157.287 58.9131 157.364 58.8359 157.428C58.78 157.474 58.7152 157.509 58.6426 157.536C58.7932 157.576 58.9139 157.648 59.0039 157.756C59.1105 157.881 59.164 158.038 59.1641 158.228C59.1641 158.393 59.1227 158.537 59.04 158.66C58.9574 158.783 58.8403 158.878 58.6885 158.944C58.5365 159.008 58.3542 159.04 58.1436 159.04C57.9998 159.04 57.8507 159.022 57.6963 158.984C57.5417 158.947 57.4066 158.891 57.292 158.816C57.2387 158.782 57.2023 158.742 57.1836 158.696C57.165 158.651 57.1601 158.608 57.168 158.568C57.1786 158.526 57.1983 158.489 57.2275 158.46C57.2595 158.431 57.2985 158.414 57.3438 158.408C57.3918 158.403 57.444 158.415 57.5 158.444C57.6093 158.503 57.7151 158.546 57.8164 158.572C57.9176 158.596 58.0214 158.608 58.1279 158.608C58.2453 158.608 58.3438 158.592 58.4238 158.56C58.5037 158.528 58.5635 158.48 58.6035 158.416C58.6462 158.352 58.668 158.274 58.668 158.184C58.6679 158.05 58.6228 157.952 58.5322 157.888C58.4442 157.821 58.3142 157.788 58.1436 157.788H57.8877C57.8132 157.788 57.7558 157.77 57.7158 157.732C57.6785 157.695 57.6602 157.643 57.6602 157.576C57.6602 157.51 57.6785 157.457 57.7158 157.42C57.7558 157.383 57.8132 157.364 57.8877 157.364H58.0957C58.197 157.364 58.2844 157.348 58.3564 157.316C58.4283 157.282 58.4845 157.233 58.5244 157.172C58.5643 157.111 58.5839 157.036 58.584 156.948C58.584 156.826 58.5426 156.732 58.46 156.668C58.38 156.604 58.2628 156.572 58.1084 156.572C58.0097 156.572 57.9161 156.584 57.8281 156.608C57.7428 156.63 57.6479 156.671 57.5439 156.732C57.4961 156.762 57.4495 156.773 57.4043 156.768C57.3616 156.762 57.3252 156.745 57.2959 156.716C57.2667 156.687 57.247 156.652 57.2363 156.612C57.2257 156.57 57.2282 156.527 57.2441 156.484C57.2601 156.439 57.2932 156.4 57.3438 156.368C57.4583 156.294 57.5851 156.238 57.7236 156.2C57.8623 156.16 58.0057 156.14 58.1523 156.14ZM110.152 156.14C110.347 156.14 110.514 156.171 110.652 156.232C110.791 156.291 110.896 156.376 110.968 156.488C111.042 156.598 111.08 156.731 111.08 156.888C111.08 157 111.058 157.103 111.016 157.196C110.973 157.287 110.913 157.364 110.836 157.428C110.78 157.474 110.715 157.509 110.643 157.536C110.793 157.576 110.914 157.648 111.004 157.756C111.11 157.881 111.164 158.038 111.164 158.228C111.164 158.393 111.123 158.537 111.04 158.66C110.957 158.783 110.84 158.878 110.688 158.944C110.536 159.008 110.354 159.04 110.144 159.04C110 159.04 109.851 159.022 109.696 158.984C109.542 158.947 109.407 158.891 109.292 158.816C109.239 158.782 109.202 158.742 109.184 158.696C109.165 158.651 109.16 158.608 109.168 158.568C109.179 158.526 109.198 158.489 109.228 158.46C109.259 158.431 109.299 158.414 109.344 158.408C109.392 158.403 109.444 158.415 109.5 158.444C109.609 158.503 109.715 158.546 109.816 158.572C109.918 158.596 110.021 158.608 110.128 158.608C110.245 158.608 110.344 158.592 110.424 158.56C110.504 158.528 110.564 158.48 110.604 158.416C110.646 158.352 110.668 158.274 110.668 158.184C110.668 158.05 110.623 157.952 110.532 157.888C110.444 157.821 110.314 157.788 110.144 157.788H109.888C109.813 157.788 109.756 157.77 109.716 157.732C109.679 157.695 109.66 157.643 109.66 157.576C109.66 157.51 109.679 157.457 109.716 157.42C109.756 157.383 109.813 157.364 109.888 157.364H110.096C110.197 157.364 110.284 157.348 110.356 157.316C110.428 157.282 110.484 157.233 110.524 157.172C110.564 157.111 110.584 157.036 110.584 156.948C110.584 156.826 110.543 156.732 110.46 156.668C110.38 156.604 110.263 156.572 110.108 156.572C110.01 156.572 109.916 156.584 109.828 156.608C109.743 156.63 109.648 156.671 109.544 156.732C109.496 156.762 109.449 156.773 109.404 156.768C109.362 156.762 109.325 156.745 109.296 156.716C109.267 156.687 109.247 156.652 109.236 156.612C109.226 156.57 109.228 156.527 109.244 156.484C109.26 156.439 109.293 156.4 109.344 156.368C109.458 156.294 109.585 156.238 109.724 156.2C109.862 156.16 110.006 156.14 110.152 156.14ZM162.152 156.14C162.347 156.14 162.514 156.171 162.652 156.232C162.791 156.291 162.896 156.376 162.968 156.488C163.042 156.598 163.08 156.731 163.08 156.888C163.08 157 163.058 157.103 163.016 157.196C162.973 157.287 162.913 157.364 162.836 157.428C162.78 157.474 162.715 157.509 162.643 157.536C162.793 157.576 162.914 157.648 163.004 157.756C163.11 157.881 163.164 158.038 163.164 158.228C163.164 158.393 163.123 158.537 163.04 158.66C162.957 158.783 162.84 158.878 162.688 158.944C162.536 159.008 162.354 159.04 162.144 159.04C162 159.04 161.851 159.022 161.696 158.984C161.542 158.947 161.407 158.891 161.292 158.816C161.239 158.782 161.202 158.742 161.184 158.696C161.165 158.651 161.16 158.608 161.168 158.568C161.179 158.526 161.198 158.489 161.228 158.46C161.259 158.431 161.299 158.414 161.344 158.408C161.392 158.403 161.444 158.415 161.5 158.444C161.609 158.503 161.715 158.546 161.816 158.572C161.918 158.596 162.021 158.608 162.128 158.608C162.245 158.608 162.344 158.592 162.424 158.56C162.504 158.528 162.564 158.48 162.604 158.416C162.646 158.352 162.668 158.274 162.668 158.184C162.668 158.05 162.623 157.952 162.532 157.888C162.444 157.821 162.314 157.788 162.144 157.788H161.888C161.813 157.788 161.756 157.77 161.716 157.732C161.679 157.695 161.66 157.643 161.66 157.576C161.66 157.51 161.679 157.457 161.716 157.42C161.756 157.383 161.813 157.364 161.888 157.364H162.096C162.197 157.364 162.284 157.348 162.356 157.316C162.428 157.282 162.484 157.233 162.524 157.172C162.564 157.111 162.584 157.036 162.584 156.948C162.584 156.826 162.543 156.732 162.46 156.668C162.38 156.604 162.263 156.572 162.108 156.572C162.01 156.572 161.916 156.584 161.828 156.608C161.743 156.63 161.648 156.671 161.544 156.732C161.496 156.762 161.449 156.773 161.404 156.768C161.362 156.762 161.325 156.745 161.296 156.716C161.267 156.687 161.247 156.652 161.236 156.612C161.226 156.57 161.228 156.527 161.244 156.484C161.26 156.439 161.293 156.4 161.344 156.368C161.458 156.294 161.585 156.238 161.724 156.2C161.862 156.16 162.006 156.14 162.152 156.14ZM214.152 156.14C214.347 156.14 214.514 156.171 214.652 156.232C214.791 156.291 214.896 156.376 214.968 156.488C215.042 156.598 215.08 156.731 215.08 156.888C215.08 157 215.058 157.103 215.016 157.196C214.973 157.287 214.913 157.364 214.836 157.428C214.78 157.474 214.715 157.509 214.643 157.536C214.793 157.576 214.914 157.648 215.004 157.756C215.11 157.881 215.164 158.038 215.164 158.228C215.164 158.393 215.123 158.537 215.04 158.66C214.957 158.783 214.84 158.878 214.688 158.944C214.536 159.008 214.354 159.04 214.144 159.04C214 159.04 213.851 159.022 213.696 158.984C213.542 158.947 213.407 158.891 213.292 158.816C213.239 158.782 213.202 158.742 213.184 158.696C213.165 158.651 213.16 158.608 213.168 158.568C213.179 158.526 213.198 158.489 213.228 158.46C213.259 158.431 213.299 158.414 213.344 158.408C213.392 158.403 213.444 158.415 213.5 158.444C213.609 158.503 213.715 158.546 213.816 158.572C213.918 158.596 214.021 158.608 214.128 158.608C214.245 158.608 214.344 158.592 214.424 158.56C214.504 158.528 214.564 158.48 214.604 158.416C214.646 158.352 214.668 158.274 214.668 158.184C214.668 158.05 214.623 157.952 214.532 157.888C214.444 157.821 214.314 157.788 214.144 157.788H213.888C213.813 157.788 213.756 157.77 213.716 157.732C213.679 157.695 213.66 157.643 213.66 157.576C213.66 157.51 213.679 157.457 213.716 157.42C213.756 157.383 213.813 157.364 213.888 157.364H214.096C214.197 157.364 214.284 157.348 214.356 157.316C214.428 157.282 214.484 157.233 214.524 157.172C214.564 157.111 214.584 157.036 214.584 156.948C214.584 156.826 214.543 156.732 214.46 156.668C214.38 156.604 214.263 156.572 214.108 156.572C214.01 156.572 213.916 156.584 213.828 156.608C213.743 156.63 213.648 156.671 213.544 156.732C213.496 156.762 213.449 156.773 213.404 156.768C213.362 156.762 213.325 156.745 213.296 156.716C213.267 156.687 213.247 156.652 213.236 156.612C213.226 156.57 213.228 156.527 213.244 156.484C213.26 156.439 213.293 156.4 213.344 156.368C213.458 156.294 213.585 156.238 213.724 156.2C213.862 156.16 214.006 156.14 214.152 156.14ZM266.152 156.14C266.347 156.14 266.514 156.171 266.652 156.232C266.791 156.291 266.896 156.376 266.968 156.488C267.042 156.598 267.08 156.731 267.08 156.888C267.08 157 267.058 157.103 267.016 157.196C266.973 157.287 266.913 157.364 266.836 157.428C266.78 157.474 266.715 157.509 266.643 157.536C266.793 157.576 266.914 157.648 267.004 157.756C267.11 157.881 267.164 158.038 267.164 158.228C267.164 158.393 267.123 158.537 267.04 158.66C266.957 158.783 266.84 158.878 266.688 158.944C266.536 159.008 266.354 159.04 266.144 159.04C266 159.04 265.851 159.022 265.696 158.984C265.542 158.947 265.407 158.891 265.292 158.816C265.239 158.782 265.202 158.742 265.184 158.696C265.165 158.651 265.16 158.608 265.168 158.568C265.179 158.526 265.198 158.489 265.228 158.46C265.259 158.431 265.299 158.414 265.344 158.408C265.392 158.403 265.444 158.415 265.5 158.444C265.609 158.503 265.715 158.546 265.816 158.572C265.918 158.596 266.021 158.608 266.128 158.608C266.245 158.608 266.344 158.592 266.424 158.56C266.504 158.528 266.564 158.48 266.604 158.416C266.646 158.352 266.668 158.274 266.668 158.184C266.668 158.05 266.623 157.952 266.532 157.888C266.444 157.821 266.314 157.788 266.144 157.788H265.888C265.813 157.788 265.756 157.77 265.716 157.732C265.679 157.695 265.66 157.643 265.66 157.576C265.66 157.51 265.679 157.457 265.716 157.42C265.756 157.383 265.813 157.364 265.888 157.364H266.096C266.197 157.364 266.284 157.348 266.356 157.316C266.428 157.282 266.484 157.233 266.524 157.172C266.564 157.111 266.584 157.036 266.584 156.948C266.584 156.826 266.543 156.732 266.46 156.668C266.38 156.604 266.263 156.572 266.108 156.572C266.01 156.572 265.916 156.584 265.828 156.608C265.743 156.63 265.648 156.671 265.544 156.732C265.496 156.762 265.449 156.773 265.404 156.768C265.362 156.762 265.325 156.745 265.296 156.716C265.267 156.687 265.247 156.652 265.236 156.612C265.226 156.57 265.228 156.527 265.244 156.484C265.26 156.439 265.293 156.4 265.344 156.368C265.458 156.294 265.585 156.238 265.724 156.2C265.862 156.16 266.006 156.14 266.152 156.14ZM318.152 156.14C318.347 156.14 318.514 156.171 318.652 156.232C318.791 156.291 318.896 156.376 318.968 156.488C319.042 156.598 319.08 156.731 319.08 156.888C319.08 157 319.058 157.103 319.016 157.196C318.973 157.287 318.913 157.364 318.836 157.428C318.78 157.474 318.715 157.509 318.643 157.536C318.793 157.576 318.914 157.648 319.004 157.756C319.11 157.881 319.164 158.038 319.164 158.228C319.164 158.393 319.123 158.537 319.04 158.66C318.957 158.783 318.84 158.878 318.688 158.944C318.536 159.008 318.354 159.04 318.144 159.04C318 159.04 317.851 159.022 317.696 158.984C317.542 158.947 317.407 158.891 317.292 158.816C317.239 158.782 317.202 158.742 317.184 158.696C317.165 158.651 317.16 158.608 317.168 158.568C317.179 158.526 317.198 158.489 317.228 158.46C317.259 158.431 317.299 158.414 317.344 158.408C317.392 158.403 317.444 158.415 317.5 158.444C317.609 158.503 317.715 158.546 317.816 158.572C317.918 158.596 318.021 158.608 318.128 158.608C318.245 158.608 318.344 158.592 318.424 158.56C318.504 158.528 318.564 158.48 318.604 158.416C318.646 158.352 318.668 158.274 318.668 158.184C318.668 158.05 318.623 157.952 318.532 157.888C318.444 157.821 318.314 157.788 318.144 157.788H317.888C317.813 157.788 317.756 157.77 317.716 157.732C317.679 157.695 317.66 157.643 317.66 157.576C317.66 157.51 317.679 157.457 317.716 157.42C317.756 157.383 317.813 157.364 317.888 157.364H318.096C318.197 157.364 318.284 157.348 318.356 157.316C318.428 157.282 318.484 157.233 318.524 157.172C318.564 157.111 318.584 157.036 318.584 156.948C318.584 156.826 318.543 156.732 318.46 156.668C318.38 156.604 318.263 156.572 318.108 156.572C318.01 156.572 317.916 156.584 317.828 156.608C317.743 156.63 317.648 156.671 317.544 156.732C317.496 156.762 317.449 156.773 317.404 156.768C317.362 156.762 317.325 156.745 317.296 156.716C317.267 156.687 317.247 156.652 317.236 156.612C317.226 156.57 317.228 156.527 317.244 156.484C317.26 156.439 317.293 156.4 317.344 156.368C317.458 156.294 317.585 156.238 317.724 156.2C317.862 156.16 318.006 156.14 318.152 156.14ZM370.152 156.14C370.347 156.14 370.514 156.171 370.652 156.232C370.791 156.291 370.896 156.376 370.968 156.488C371.042 156.598 371.08 156.731 371.08 156.888C371.08 157 371.058 157.103 371.016 157.196C370.973 157.287 370.913 157.364 370.836 157.428C370.78 157.474 370.715 157.509 370.643 157.536C370.793 157.576 370.914 157.648 371.004 157.756C371.11 157.881 371.164 158.038 371.164 158.228C371.164 158.393 371.123 158.537 371.04 158.66C370.957 158.783 370.84 158.878 370.688 158.944C370.536 159.008 370.354 159.04 370.144 159.04C370 159.04 369.851 159.022 369.696 158.984C369.542 158.947 369.407 158.891 369.292 158.816C369.239 158.782 369.202 158.742 369.184 158.696C369.165 158.651 369.16 158.608 369.168 158.568C369.179 158.526 369.198 158.489 369.228 158.46C369.259 158.431 369.299 158.414 369.344 158.408C369.392 158.403 369.444 158.415 369.5 158.444C369.609 158.503 369.715 158.546 369.816 158.572C369.918 158.596 370.021 158.608 370.128 158.608C370.245 158.608 370.344 158.592 370.424 158.56C370.504 158.528 370.564 158.48 370.604 158.416C370.646 158.352 370.668 158.274 370.668 158.184C370.668 158.05 370.623 157.952 370.532 157.888C370.444 157.821 370.314 157.788 370.144 157.788H369.888C369.813 157.788 369.756 157.77 369.716 157.732C369.679 157.695 369.66 157.643 369.66 157.576C369.66 157.51 369.679 157.457 369.716 157.42C369.756 157.383 369.813 157.364 369.888 157.364H370.096C370.197 157.364 370.284 157.348 370.356 157.316C370.428 157.282 370.484 157.233 370.524 157.172C370.564 157.111 370.584 157.036 370.584 156.948C370.584 156.826 370.543 156.732 370.46 156.668C370.38 156.604 370.263 156.572 370.108 156.572C370.01 156.572 369.916 156.584 369.828 156.608C369.743 156.63 369.648 156.671 369.544 156.732C369.496 156.762 369.449 156.773 369.404 156.768C369.362 156.762 369.325 156.745 369.296 156.716C369.267 156.687 369.247 156.652 369.236 156.612C369.226 156.57 369.228 156.527 369.244 156.484C369.26 156.439 369.293 156.4 369.344 156.368C369.458 156.294 369.585 156.238 369.724 156.2C369.862 156.16 370.006 156.14 370.152 156.14ZM7.89844 158.428C7.99164 158.428 8.0636 158.456 8.11426 158.512C8.16753 158.565 8.19428 158.635 8.19434 158.72C8.19434 158.808 8.1675 158.88 8.11426 158.936C8.06359 158.992 7.99177 159.02 7.89844 159.02C7.80777 159.02 7.73471 158.992 7.67871 158.936C7.62544 158.88 7.59863 158.808 7.59863 158.72C7.59869 158.635 7.62543 158.565 7.67871 158.512C7.73468 158.456 7.80792 158.428 7.89844 158.428ZM59.8984 158.428C59.9916 158.428 60.0636 158.456 60.1143 158.512C60.1675 158.565 60.1943 158.635 60.1943 158.72C60.1943 158.808 60.1675 158.88 60.1143 158.936C60.0636 158.992 59.9918 159.02 59.8984 159.02C59.8078 159.02 59.7347 158.992 59.6787 158.936C59.6254 158.88 59.5986 158.808 59.5986 158.72C59.5987 158.635 59.6254 158.565 59.6787 158.512C59.7347 158.456 59.8079 158.428 59.8984 158.428ZM111.898 158.428C111.992 158.428 112.064 158.456 112.114 158.512C112.168 158.565 112.194 158.635 112.194 158.72C112.194 158.808 112.167 158.88 112.114 158.936C112.064 158.992 111.992 159.02 111.898 159.02C111.808 159.02 111.735 158.992 111.679 158.936C111.625 158.88 111.599 158.808 111.599 158.72C111.599 158.635 111.625 158.565 111.679 158.512C111.735 158.456 111.808 158.428 111.898 158.428ZM163.898 158.428C163.992 158.428 164.064 158.456 164.114 158.512C164.168 158.565 164.194 158.635 164.194 158.72C164.194 158.808 164.167 158.88 164.114 158.936C164.064 158.992 163.992 159.02 163.898 159.02C163.808 159.02 163.735 158.992 163.679 158.936C163.625 158.88 163.599 158.808 163.599 158.72C163.599 158.635 163.625 158.565 163.679 158.512C163.735 158.456 163.808 158.428 163.898 158.428ZM215.898 158.428C215.992 158.428 216.064 158.456 216.114 158.512C216.168 158.565 216.194 158.635 216.194 158.72C216.194 158.808 216.167 158.88 216.114 158.936C216.064 158.992 215.992 159.02 215.898 159.02C215.808 159.02 215.735 158.992 215.679 158.936C215.625 158.88 215.599 158.808 215.599 158.72C215.599 158.635 215.625 158.565 215.679 158.512C215.735 158.456 215.808 158.428 215.898 158.428ZM267.898 158.428C267.992 158.428 268.064 158.456 268.114 158.512C268.168 158.565 268.194 158.635 268.194 158.72C268.194 158.808 268.168 158.88 268.114 158.936C268.064 158.992 267.992 159.02 267.898 159.02C267.808 159.02 267.735 158.992 267.679 158.936C267.625 158.88 267.599 158.808 267.599 158.72C267.599 158.635 267.625 158.565 267.679 158.512C267.735 158.456 267.808 158.428 267.898 158.428ZM319.898 158.428C319.992 158.428 320.064 158.456 320.114 158.512C320.168 158.565 320.194 158.635 320.194 158.72C320.194 158.808 320.168 158.88 320.114 158.936C320.064 158.992 319.992 159.02 319.898 159.02C319.808 159.02 319.735 158.992 319.679 158.936C319.625 158.88 319.599 158.808 319.599 158.72C319.599 158.635 319.625 158.565 319.679 158.512C319.735 158.456 319.808 158.428 319.898 158.428ZM371.898 158.428C371.992 158.428 372.064 158.456 372.114 158.512C372.168 158.565 372.194 158.635 372.194 158.72C372.194 158.808 372.168 158.88 372.114 158.936C372.064 158.992 371.992 159.02 371.898 159.02C371.808 159.02 371.735 158.992 371.679 158.936C371.625 158.88 371.599 158.808 371.599 158.72C371.599 158.635 371.625 158.565 371.679 158.512C371.735 158.456 371.808 158.428 371.898 158.428ZM0.5 151.5H44.5V141H0.5V151.5ZM52.5 151.5H96.5V141H52.5V151.5ZM104.5 151.5H148.5V141H104.5V151.5ZM156.5 151.5H200.5V141H156.5V151.5ZM208.5 151.5H252.5V141H208.5V151.5ZM260.5 151.5H304.5V141H260.5V151.5ZM312.5 151.5H356.5V141H312.5V151.5ZM364.5 151.5H408.5V141H364.5V151.5ZM8 149H3V144H8V149ZM60 149H55V144H60V149ZM112 149H107V144H112V149ZM164 149H159V144H164V149ZM216 149H211V144H216V149ZM268 149H263V144H268V149ZM320 149H315V144H320V149ZM372 149H367V144H372V149ZM0.5 140.5H44.5V130H0.5V140.5ZM52.5 140.5H96.5V130H52.5V140.5ZM104.5 140.5H148.5V130H104.5V140.5ZM156.5 140.5H200.5V130H156.5V140.5ZM208.5 140.5H252.5V130H208.5V140.5ZM260.5 140.5H304.5V130H260.5V140.5ZM312.5 140.5H356.5V130H312.5V140.5ZM364.5 140.5H408.5V130H364.5V140.5ZM8 137H3V132H8V137ZM60 137H55V132H60V137ZM112 137H107V132H112V137ZM164 137H159V132H164V137ZM216 137H211V132H216V137ZM268 137H263V132H268V137ZM320 137H315V132H320V137ZM372 137H367V132H372V137ZM50 6H57V11H63.5V25.5H70V14H120V20H127V25.5H141V14H191V20H198V25.5H205V20H255V32H205V26H198V32.5H191V38H141V26H134.5V86H127V92.5H120V98H70V86H63.5V100.5H57V107.5H50V113H0V89H50V95H57V100H63V71.5H57V78.5H50V84H0V60H50V66H57V71H63.5V85.5H70V74H120V80H127V85.5H134V26H127V32.5H120V38H70V26H63.5V40.5H57V47.5H50V53H0V29H50V35H57V40H63V11.5H57V18.5H50V24H0V0H50V6ZM409 24H359V18H352V13H346V41.5H352V34.5H359V29H409V53H359V47H352V42H345.5V27.5H339V39H289V33H282V27.5H275V87H282V80.5H289V75H339V87H345.5V72.5H352V65.5H359V60H409V84H359V78H352V73H346V101.5H352V94.5H359V89H409V113H359V107H352V102H345.5V87.5H339V99H289V93H282V87.5H268V99H218V93H211V87.5H204V93H154V81H204V87H211V80.5H218V75H268V87H274.5V27H282V20.5H289V15H339V27H345.5V12.5H352V5.5H359V0H409V24ZM0.5 112.5H34.5V101H0.5V112.5ZM35 112.5H49.5V101H35V112.5ZM359.5 112.5H374V101.5H359.5V112.5ZM374.5 112.5H408.5V101.5H374.5V112.5ZM50 107H56.5V95.5H50V107ZM352.5 106.5H359V95H352.5V106.5ZM359.5 101H374V89.5H359.5V101ZM374.5 101H408.5V89.5H374.5V101ZM0.5 100.5H34.5V89.5H0.5V100.5ZM35 100.5H49.5V89.5H35V100.5ZM218.5 98.5H233V87.5H218.5V98.5ZM233.5 98.5H267.5V87.5H233.5V98.5ZM289.5 98.5H304V87.5H289.5V98.5ZM304.5 98.5H338.5V87.5H304.5V98.5ZM70.5 97.5H104.5V86H70.5V97.5ZM105 97.5H119.5V86H105V97.5ZM154.5 92.5H203.5V81.5H154.5V92.5ZM211.5 92.5H218V81H211.5V92.5ZM282.5 92.5H289V81H282.5V92.5ZM120 92H126.5V80.5H120V92ZM218.5 87H233V75.5H218.5V87ZM233.5 87H267.5V75.5H233.5V87ZM289.5 87H304V75.5H289.5V87ZM304.5 87H338.5V75.5H304.5V87ZM70.5 85.5H104.5V74.5H70.5V85.5ZM105 85.5H119.5V74.5H105V85.5ZM0.5 83.5H34.5V72H0.5V83.5ZM35 83.5H49.5V72H35V83.5ZM359.5 83.5H374V72.5H359.5V83.5ZM374.5 83.5H408.5V72.5H374.5V83.5ZM192.047 66L176 79.4648L175.357 78.6992L191.403 65.2344L192.047 66ZM50 78H56.5V66.5H50V78ZM352.5 77.5H359V66H352.5V77.5ZM359.5 72H374V60.5H359.5V72ZM374.5 72H408.5V60.5H374.5V72ZM0.5 71.5H34.5V60.5H0.5V71.5ZM35 71.5H49.5V60.5H35V71.5ZM206.456 55.3604C206.608 55.3604 206.716 55.3958 206.78 55.4678C206.852 55.5318 206.888 55.64 206.888 55.792V57.2197C206.888 57.3715 206.852 57.4837 206.78 57.5557C206.716 57.6197 206.608 57.6523 206.456 57.6523H203.66C203.556 57.6523 203.476 57.6878 203.42 57.7598C203.364 57.8237 203.336 57.9078 203.336 58.0117C203.336 58.1157 203.364 58.2044 203.42 58.2764C203.476 58.3482 203.556 58.3885 203.66 58.3965L205.448 58.6357C206.008 58.7158 206.46 58.9005 206.804 59.1885C207.148 59.4765 207.32 59.956 207.32 60.6279V61.8877C207.32 62.5676 207.096 63.092 206.648 63.46C206.208 63.82 205.604 64 204.836 64H201.044C200.892 64 200.78 63.9682 200.708 63.9043C200.644 63.8324 200.612 63.7202 200.612 63.5684V62.1641C200.612 62.0121 200.644 61.9038 200.708 61.8398C200.78 61.7679 200.892 61.7324 201.044 61.7324H204.272C204.376 61.7323 204.452 61.6996 204.5 61.6357C204.556 61.5638 204.584 61.4797 204.584 61.3838C204.584 61.2479 204.556 61.148 204.5 61.084C204.452 61.0201 204.376 60.9837 204.272 60.9756L202.472 60.7236C201.912 60.6436 201.46 60.4598 201.116 60.1719C200.78 59.8839 200.612 59.4042 200.612 58.7324V57.4717C200.612 56.7918 200.833 56.2721 201.272 55.9121C201.712 55.5443 202.32 55.3604 203.096 55.3604H206.456ZM193.988 51.3604C194.14 51.3604 194.256 51.3959 194.336 51.4678C194.416 51.5318 194.456 51.64 194.456 51.792V55.1035C194.456 55.1835 194.464 55.2638 194.48 55.3438C194.496 55.4236 194.52 55.5078 194.552 55.5957L195.116 57.2764C195.14 57.3562 195.168 57.4124 195.2 57.4443C195.232 57.4682 195.28 57.4804 195.344 57.4805H195.476C195.54 57.4805 195.588 57.4683 195.62 57.4443C195.652 57.4124 195.68 57.3562 195.704 57.2764L196.268 55.584C196.3 55.496 196.324 55.412 196.34 55.332C196.356 55.252 196.364 55.1718 196.364 55.0918V51.792C196.364 51.64 196.396 51.5318 196.46 51.4678C196.532 51.3959 196.644 51.3604 196.796 51.3604H198.68C198.832 51.3604 198.94 51.3959 199.004 51.4678C199.076 51.5318 199.112 51.64 199.112 51.792V54.96C199.112 55.152 199.104 55.3161 199.088 55.4521C199.08 55.5801 199.06 55.7043 199.028 55.8242C198.996 55.9442 198.956 56.0721 198.908 56.208C198.86 56.336 198.8 56.4881 198.728 56.6641L197.552 59.6035C197.496 59.7555 197.416 59.86 197.312 59.916C197.216 59.9718 197.092 59.9999 196.94 60H193.82C193.668 60 193.54 59.972 193.436 59.916C193.34 59.86 193.264 59.7553 193.208 59.6035L192.032 56.6641C191.96 56.4881 191.9 56.336 191.852 56.208C191.804 56.0722 191.764 55.9441 191.732 55.8242C191.7 55.7043 191.676 55.5801 191.66 55.4521C191.652 55.3161 191.648 55.152 191.648 54.96V51.792C191.648 51.64 191.68 51.5318 191.744 51.4678C191.816 51.3959 191.928 51.3604 192.08 51.3604H193.988ZM0.5 52.5H34.5V41H0.5V52.5ZM35 52.5H49.5V41H35V52.5ZM359.5 52.5H374V41.5H359.5V52.5ZM374.5 52.5H408.5V41.5H374.5V52.5ZM224.252 37.2891L208.205 50.7539L207.562 49.9883L223.608 36.5234L224.252 37.2891ZM50 47H56.5V35.5H50V47ZM352.5 46.5H359V35H352.5V46.5ZM359.5 41H374V29.5H359.5V41ZM374.5 41H408.5V29.5H374.5V41ZM0.5 40.5H34.5V29.5H0.5V40.5ZM35 40.5H49.5V29.5H35V40.5ZM289.5 38.5H304V27.5H289.5V38.5ZM304.5 38.5H338.5V27.5H304.5V38.5ZM70.5 37.5H104.5V26H70.5V37.5ZM105 37.5H119.5V26H105V37.5ZM141.5 37.5H175.5V26H141.5V37.5ZM176 37.5H190.5V26H176V37.5ZM282.5 32.5H289V21H282.5V32.5ZM120 32H126.5V20.5H120V32ZM191 32H197.5V20.5H191V32ZM205.5 31.5H254.5V20.5H205.5V31.5ZM289.5 27H304V15.5H289.5V27ZM304.5 27H338.5V15.5H304.5V27ZM70.5 25.5H104.5V14.5H70.5V25.5ZM105 25.5H119.5V14.5H105V25.5ZM141.5 25.5H175.5V14.5H141.5V25.5ZM176 25.5H190.5V14.5H176V25.5ZM0.5 23.5H34.5V12H0.5V23.5ZM35 23.5H49.5V12H35V23.5ZM359.5 23.5H374V12.5H359.5V23.5ZM374.5 23.5H408.5V12.5H374.5V23.5ZM50 18H56.5V6.5H50V18ZM352.5 17.5H359V6H352.5V17.5ZM359.5 12H374V0.5H359.5V12ZM374.5 12H408.5V0.5H374.5V12ZM0.5 11.5H34.5V0.5H0.5V11.5ZM35 11.5H49.5V0.5H35V11.5Z" fill="black"/>
</svg>
